<?xml version="1.0" encoding="UTF-8" standalone="no"?>
<svg
   xmlns:dc="http://purl.org/dc/elements/1.1/"
   xmlns:cc="http://creativecommons.org/ns#"
   xmlns:rdf="http://www.w3.org/1999/02/22-rdf-syntax-ns#"
   xmlns:svg="http://www.w3.org/2000/svg"
   xmlns="http://www.w3.org/2000/svg"
   xmlns:sodipodi="http://sodipodi.sourceforge.net/DTD/sodipodi-0.dtd"
   xmlns:inkscape="http://www.inkscape.org/namespaces/inkscape"
   height="64"
   viewBox="0 0 16.933333 16.933333"
   width="64"
   version="1.1"
   id="svg4"
   sodipodi:docname="yeet-lang.svg"
   inkscape:version="0.92.4 5da689c313, 2019-01-14">
  <metadata
     id="metadata10">
    <rdf:RDF>
      <cc:Work
         rdf:about="">
        <dc:format>image/svg+xml</dc:format>
        <dc:type
           rdf:resource="http://purl.org/dc/dcmitype/StillImage" />
      </cc:Work>
    </rdf:RDF>
  </metadata>
  <defs
     id="defs8" />
  <sodipodi:namedview
     pagecolor="#ffffff"
     bordercolor="#666666"
     borderopacity="1"
     objecttolerance="10"
     gridtolerance="10"
     guidetolerance="10"
     inkscape:pageopacity="0"
     inkscape:pageshadow="2"
     inkscape:window-width="1366"
     inkscape:window-height="713"
     id="namedview6"
     showgrid="false"
     inkscape:zoom="5.5408445"
     inkscape:cx="37.083278"
     inkscape:cy="37.996469"
     inkscape:window-x="0"
     inkscape:window-y="27"
     inkscape:window-maximized="1"
     inkscape:current-layer="svg4" />
  <path
     d="M 32,0 C 14.326888,-5.5228478e-7 -5.5228478e-7,14.326888 0,32 -5.5228478e-7,49.673112 14.326888,64.000001 32,64 49.673112,64.000001 64.000001,49.673112 64,32 64.000001,14.326888 49.673112,-5.5228478e-7 32,0 Z"
     transform="scale(0.26458333)"
     id="path2"
     inkscape:connector-curvature="0"
     style="fill:#000000;fill-opacity:1"
     sodipodi:nodetypes="sssss" />
  <g
     aria-label="y"
     transform="matrix(0.41324435,0,0,0.42059508,2.3390276,-5.5805519)"
     style="font-style:normal;font-variant:normal;font-weight:normal;font-stretch:normal;font-size:40px;line-height:1.25;font-family:'DejaVu Sans Mono';-inkscape-font-specification:'DejaVu Sans Mono';letter-spacing:0px;word-spacing:0px;fill:#ff5400;fill-opacity:1;stroke:none"
     id="flowRoot817">
    <path
       d="m 19.310547,33.144531 q -0.898438,2.285156 -2.285156,6.015625 -1.933594,5.15625 -2.597657,6.289063 -0.898437,1.523437 -2.246093,2.285156 -1.347657,0.761719 -3.1445316,0.761719 h -2.890625 v -3.007813 h 2.1289062 q 1.5820313,0 2.4804684,-0.917969 0.898438,-0.917968 2.285157,-4.746093 L 4.5839844,18.300781 h 3.8085937 l 6.4843749,17.109375 6.386719,-17.109375 h 3.808594 z"
       style="fill:#ff5400;fill-opacity:1"
       id="path825" />
  </g>
</svg>
